Water (1985/I)
 
http://www.imdb.com/title/tt0090297/

Genre: Comedy

Director: Dick Clement
County: UK
Language: English

Starring: Michael Caine, Valerie Perrine, Brenda Vaccaro


Plot:
Farce about a British diplomat to a West Indian island nation who finds his idyllic existance thrown into chaos when a large American drilling company finds a huge source of natural mineral water there. 


Format                           : AVI
File size                        : 703 MiB
Duration                         : 1h 33mn
Overall bit rate                 : 1 050 Kbps

Video
Codec ID                         : XVID
Duration                         : 1h 33mn
Bit rate                         : 912 Kbps
Width                            : 640 pixels
Height                           : 352 pixels
Display aspect ratio             : 16:9
Frame rate                       : 25.000 fps
Color space                      : YUV
Chroma subsampling               : 4:2:0
Bit depth                        : 8 bits
Scan type                        : Progressive
Compression mode                 : Lossy
Bits/(Pixel*Frame)               : 0.162
Stream size                      : 610 MiB (87%)

Audio
Codec ID/Hint                    : MP3
Duration                         : 1h 33mn
Bit rate mode                    : Constant
Bit rate                         : 128 Kbps
Channel(s)                       : 2 channels
Sampling rate                    : 48.0 KHz
Compression mode                 : Lossy
Stream size                      : 85.7 MiB (12%)
 
http://leetleech.org/images/29228906394939836594.jpg 
http://leetleech.org/images/23939437308123265082.jpg 
http://leetleech.org/images/40085151113310643342.jpg 
http://leetleech.org/images/61940984411263963515.jpg 
http://leetleech.org/images/01755040594036838961.jpg 
http://leetleech.org/images/09589349261414687408.jpg
